<svg width="24" height="24" viewBox="0 0 64 64" fill="none" xmlns="http://www.w3.org/2000/svg">
<path d="M58.8801 5.11988C57.5188 3.76057 55.6738 2.99707 53.7501 2.99707C51.8264 2.99707 49.9813 3.76057 48.6201 5.11988L25.5401 28.1899C25.3769 28.3596 25.2628 28.5704 25.2101 28.7999L22.7801 39.7299C22.7416 39.9123 22.7441 40.101 22.7873 40.2824C22.8306 40.4637 22.9136 40.6332 23.0303 40.7786C23.147 40.924 23.2945 41.0417 23.4622 41.1232C23.6299 41.2047 23.8136 41.248 24.0001 41.2499C24.0898 41.2597 24.1803 41.2597 24.2701 41.2499L35.2001 38.7899C35.4295 38.7372 35.6404 38.6231 35.8101 38.4599L58.8801 15.3799C59.5555 14.7072 60.0915 13.9077 60.4572 13.0274C60.8229 12.1471 61.0112 11.2032 61.0112 10.2499C61.0112 9.2966 60.8229 8.3527 60.4572 7.47236C60.0915 6.59202 59.5555 5.79256 58.8801 5.11988V5.11988ZM34.3001 36.4299L25.6501 38.3499L27.5701 29.6999L44.3101 12.9999C45.2025 12.1061 46.4135 11.6035 47.6765 11.6025C48.9396 11.6016 50.1513 12.1024 51.0451 12.9949C51.9388 13.8873 52.4415 15.0983 52.4424 16.3613C52.4434 17.6244 51.9425 18.8361 51.0501 19.7299L34.3001 36.4299ZM57.1201 13.6199L54.9101 15.8199C54.795 14.0728 54.049 12.427 52.811 11.189C51.5729 9.95091 49.9272 9.20493 48.1801 9.08988L50.3801 6.87988C51.2769 5.99196 52.488 5.49388 53.7501 5.49388C55.0121 5.49388 56.2232 5.99196 57.1201 6.87988C58.0104 7.77548 58.5102 8.98703 58.5102 10.2499C58.5102 11.5127 58.0104 12.7243 57.1201 13.6199V13.6199Z" fill="#ffffff" id="id_101"></path>
<path d="M54.91 28.75C54.5785 28.75 54.2605 28.8817 54.0261 29.1161C53.7917 29.3505 53.66 29.6685 53.66 30V57.27C53.66 57.6625 53.5041 58.039 53.2265 58.3165C52.9489 58.5941 52.5725 58.75 52.18 58.75H6.72998C6.33746 58.75 5.96102 58.5941 5.68346 58.3165C5.40591 58.039 5.24998 57.6625 5.24998 57.27V22.73C5.24998 22.3375 5.40591 21.961 5.68346 21.6835C5.96102 21.4059 6.33746 21.25 6.72998 21.25H24C24.3315 21.25 24.6494 21.1183 24.8839 20.8839C25.1183 20.6495 25.25 20.3315 25.25 20C25.25 19.6685 25.1183 19.3505 24.8839 19.1161C24.6494 18.8817 24.3315 18.75 24 18.75H6.72998C5.66911 18.75 4.6517 19.1714 3.90155 19.9216C3.15141 20.6717 2.72998 21.6891 2.72998 22.75V57.27C2.72998 58.3309 3.15141 59.3483 3.90155 60.0984C4.6517 60.8486 5.66911 61.27 6.72998 61.27H52.18C53.2408 61.27 54.2583 60.8486 55.0084 60.0984C55.7586 59.3483 56.18 58.3309 56.18 57.27V30C56.18 29.8342 56.147 29.67 56.083 29.517C56.0189 29.364 55.925 29.2253 55.8068 29.109C55.6886 28.9926 55.5485 28.901 55.3945 28.8393C55.2405 28.7777 55.0758 28.7473 54.91 28.75Z" fill="#f7f7f7" id="id_102"></path>
</svg>