<svg version="1.1" id="Layer_1" xmlns="http://www.w3.org/2000/svg" xmlns:xlink="http://www.w3.org/1999/xlink" x="0px" y="0px" viewBox="0 0 512 512" style="enable-background:new 0 0 512 512;" xml:space="preserve">
<style type="text/css">
	.st0{fill:#EEAD14;}
	.st1{fill:#141C28;}
</style>
<title>checklist-outline</title>
<path class="st0" d="M358.4,204.8H256c-7.1,0-12.8,5.7-12.8,12.8s5.7,12.8,12.8,12.8l0,0h102.4c7.1,0,12.8-5.7,12.8-12.8
	S365.5,204.8,358.4,204.8z" id="id_101" style="fill: rgb(255, 255, 255);"></path>
<path class="st0" d="M211.9,181.3c-5.9-3.9-13.8-2.3-17.8,3.6l-19.3,29l-15.5-7.8c-6.3-3.2-14-0.6-17.2,5.7
	c-3.2,6.3-0.6,14,5.7,17.2l25.6,12.8c5.8,2.9,12.8,1,16.4-4.4l25.6-38.4C219.4,193.2,217.8,185.3,211.9,181.3
	C211.9,181.4,211.9,181.4,211.9,181.3z" id="id_102" style="fill: rgb(255, 255, 255);"></path>
<path class="st0" d="M358.4,294.4H256c-7.1,0-12.8,5.7-12.8,12.8c0,7.1,5.7,12.8,12.8,12.8l0,0h102.4c7.1,0,12.8-5.7,12.8-12.8
	C371.2,300.1,365.5,294.4,358.4,294.4z" id="id_103" style="fill: rgb(255, 255, 255);"></path>
<path class="st0" d="M211.9,271c-5.9-3.9-13.8-2.3-17.8,3.5l-19.3,29l-15.5-7.8c-6.3-3.2-14-0.6-17.2,5.7c-3.2,6.3-0.6,14,5.7,17.2
	l25.6,12.8c5.8,2.9,12.8,1,16.4-4.4l25.6-38.4C219.4,282.8,217.8,274.9,211.9,271C211.9,271,211.9,271,211.9,271z" id="id_104" style="fill: rgb(255, 255, 255);"></path>
<path class="st0" d="M358.4,384H256c-7.1,0-12.8,5.7-12.8,12.8c0,7.1,5.7,12.8,12.8,12.8l0,0h102.4c7.1,0,12.8-5.7,12.8-12.8
	C371.2,389.7,365.5,384,358.4,384z" id="id_105" style="fill: rgb(255, 255, 255);"></path>
<path class="st0" d="M211.9,360.5c-5.9-3.9-13.8-2.3-17.8,3.5l-19.3,29l-15.5-7.8c-6.3-3.2-14-0.6-17.2,5.7
	c-3.2,6.3-0.6,14,5.7,17.2l0,0l25.6,12.8c5.8,2.9,12.8,1,16.4-4.4l25.6-38.4C219.4,372.4,217.8,364.5,211.9,360.5
	C211.9,360.6,211.9,360.6,211.9,360.5z" id="id_106" style="fill: rgb(255, 255, 255);"></path>
<path class="st1" d="M396.8,38.4H339c-6-8-15.4-12.8-25.4-12.8h-21.4c-7-20-28.9-30.5-48.9-23.4c-11,3.9-19.6,12.5-23.4,23.4h-21.4
	c-10,0-19.4,4.8-25.4,12.8h-57.8c-35.3,0.1-63.9,28.7-64,64V448c0.1,35.3,28.7,63.9,64,64h281.6c35.3-0.1,63.9-28.7,64-64V102.4
	C460.7,67.1,432.1,38.5,396.8,38.4z M256,25.6c7.1,0,12.8,5.7,12.8,12.8s-5.7,12.8-12.8,12.8s-12.8-5.7-12.8-12.8
	C243.2,31.3,248.9,25.6,256,25.6z M192,57.6c0-3.5,2.9-6.4,6.4-6.4h21.4c7,20,28.9,30.5,48.9,23.4c11-3.9,19.6-12.5,23.4-23.4h21.4
	c3.5,0,6.4,2.9,6.4,6.4V96c0,3.5-2.9,6.4-6.4,6.4H198.4c-3.5,0-6.4-2.9-6.4-6.4V57.6z M435.2,448c0,21.2-17.2,38.4-38.4,38.4H115.2
	c-21.2,0-38.4-17.2-38.4-38.4V102.4C76.8,81.2,94,64,115.2,64h51.2v32c0,17.7,14.3,32,32,32h115.2c17.7,0,32-14.3,32-32V64h51.2
	c21.2,0,38.4,17.2,38.4,38.4V448z" id="id_107" style="fill: rgb(255, 255, 255);"></path>
</svg>