<svg version="1.1" xmlns="http://www.w3.org/2000/svg" xmlns:xlink="http://www.w3.org/1999/xlink" x="0px" y="0px" viewBox="0 0 24 24" style="enable-background:new 0 0 50 50;" xml:space="preserve">
<g id="Layer_1">
<path d="M33.414,1H3v42h23.214c1.824,3.556,5.521,6,9.786,6c6.065,0,11-4.935,11-11c0-4.264-2.444-7.961-6-9.786V8.586L33.414,1z
		 M34,4.414L37.586,8H34V4.414z M25.418,41H5V3h27v7h7v17.417c-0.063-0.018-0.129-0.024-0.192-0.041
		c-0.351-0.093-0.708-0.168-1.071-0.226c-0.123-0.02-0.246-0.041-0.37-0.057C36.919,27.038,36.464,27,36,27c-6.065,0-11,4.935-11,11
		c0,0.464,0.038,0.918,0.094,1.366c0.016,0.125,0.037,0.248,0.057,0.371c0.058,0.366,0.134,0.726,0.228,1.079
		C25.395,40.877,25.401,40.94,25.418,41z M45,38c0,4.962-4.037,9-9,9c-3.692,0-6.868-2.236-8.255-5.424
		c-0.112-0.259-0.21-0.521-0.297-0.787c-0.007-0.023-0.017-0.044-0.024-0.067c-0.087-0.271-0.157-0.545-0.217-0.822
		c-0.005-0.023-0.012-0.044-0.017-0.067c-0.056-0.267-0.095-0.537-0.126-0.808c-0.004-0.034-0.012-0.067-0.016-0.101
		C27.016,38.618,27,38.31,27,38c0-4.962,4.037-9,9-9c0.31,0,0.619,0.016,0.924,0.047c0.027,0.003,0.053,0.009,0.081,0.012
		c0.279,0.031,0.555,0.072,0.829,0.129c0.017,0.004,0.033,0.009,0.05,0.013c0.282,0.061,0.562,0.133,0.839,0.222
		c0.022,0.007,0.043,0.017,0.065,0.024c0.266,0.087,0.528,0.185,0.787,0.297C42.763,31.131,45,34.308,45,38z" id="id_101" style="fill: rgb(255, 255, 255);"></path>
<polygon points="37,33 35,33 35,37 31,37 31,39 35,39 35,43 37,43 37,39 41,39 41,37 37,37 	" id="id_102" style="fill: rgb(255, 255, 255);"></polygon>
</g>
<g>
</g>
</svg>