<svg id="Layer_1" data-name="Layer 1" xmlns="http://www.w3.org/2000/svg" viewBox="0 0 128 128"><defs><style>.cls-1{fill:#2e79bd;}.cls-2{fill:#2d3e50;}</style></defs><title>b</title><rect class="cls-1" x="84.75812" y="41.07858" width="15.05042" height="23.12109" id="id_101" style="fill: rgb(255, 255, 255);"></rect><rect class="cls-1" x="59.78225" y="26.52675" width="15.05042" height="37.67291" id="id_102" style="fill: rgb(255, 255, 255);"></rect><rect class="cls-1" x="109.76519" y="9.29495" width="15.05042" height="54.90471" id="id_103" style="fill: rgb(255, 255, 255);"></rect><path class="cls-2" d="M60.03909,75.52957,76.121,113.7795a51.37121,51.37121,0,0,0,11.38214-7.38938l.11085-.09706a50.58956,50.58956,0,0,0,16.38692-27.17284l.04163-.15248c.26341-1.15071.4852-2.32909.66543-3.45205ZM93.312,85.0123a41.16846,41.16846,0,0,1-3.81252,6.82092,42.87709,42.87709,0,0,1-7.36163,8.1935l-.06939.0693c-.65155.55458-1.317,1.0952-1.99638,1.60815L72.558,83.8478l21.267-.01388C93.65859,84.23594,93.49223,84.62416,93.312,85.0123Z" id="id_104" style="fill: rgb(255, 255, 255);"></path><path class="cls-2" d="M48.42161,72.45559c-.061-.16571-.09872-.27189-.12934-.37771-.01942-.06845-.03445-.13092-.06655-.27537L48.18544,71.61c-.01514-.08443-.02795-.16741-.03825-.259-.0095-.06876-.01619-.16415-.02343-.2984l-.01058-.54826,3.04464-53.82854a51.84852,51.84852,0,0,0-8.57527,1.248,51.06794,51.06794,0,1,0,24.58192,99.12563Z" id="id_105" style="fill: rgb(255, 255, 255);"></path><polygon class="cls-2" points="49.658 71.348 49.658 71.348 49.658 71.348 49.658 71.348" id="id_106" style="fill: rgb(255, 255, 255);"></polygon></svg>