<svg width="24" height="24" viewBox="0 0 101 101" fill="none" xmlns="http://www.w3.org/2000/svg">
<g clip-path="url(#clip0_120_264)">
<path d="M96.747 39.2416C96.561 38.4596 95.777 37.9766 94.992 38.1626C94.21 38.3496 93.727 39.1346 93.914 39.9166C94.68 43.1286 95.069 46.5206 95.069 49.9996C95.069 74.8496 74.399 95.0666 48.991 95.0666C23.583 95.0666 2.913 74.8496 2.913 49.9996C2.913 25.1476 23.583 4.92958 48.991 4.92958C59.11 4.92958 68.776 8.13158 76.943 14.1896C77.587 14.6686 78.501 14.5336 78.98 13.8876C79.459 13.2416 79.324 12.3296 78.678 11.8506C70.006 5.41658 59.74 2.01758 48.991 2.01758C21.977 2.01758 0 23.5416 0 49.9996C0 76.4556 21.977 97.9796 48.991 97.9796C76.005 97.9796 97.982 76.4556 97.982 49.9996C97.982 46.2946 97.566 42.6756 96.747 39.2416Z" fill="#ffffff" stroke="#ffffff" stroke-width="2.2" id="id_101"></path>
<path d="M47.98 71.6821C47.594 71.6821 47.224 71.5291 46.95 71.2561L19.637 43.9471C19.068 43.3781 19.068 42.4561 19.637 41.8871C20.205 41.3181 21.127 41.3181 21.696 41.8871L47.919 68.1061L97.457 12.6201C97.993 12.0201 98.913 11.9681 99.513 12.5041C100.113 13.0401 100.165 13.9601 99.63 14.5601L49.066 71.1961C48.799 71.4951 48.421 71.6711 48.021 71.6821C48.007 71.6821 47.994 71.6821 47.98 71.6821Z" fill="#ffffff" stroke="#ffffff" stroke-width="2.2" id="id_102"></path>
</g>
<defs>
<clipPath id="clip0_120_264">
<rect width="100.353" height="100.353" fill="#ffffff" id="id_103"></rect>
</clipPath>
</defs>
</svg>